<svg
  viewBox="0 0 100 100"
  fill="none"
  xmlns="http://www.w3.org/2000/svg"
>
  <defs>
    <linearGradient
      id="grad1"
      x1="50"
      y1="0"
      x2="50"
      y2="100"
      gradientUnits="userSpaceOnUse"
    >
      <stop stop-color="#22d3ee"></stop>
      <stop offset="1" stop-color="#0ea5e9"></stop>
    </linearGradient>
    <linearGradient
      id="grad2"
      x1="20"
      y1="20"
      x2="20"
      y2="80"
      gradientUnits="userSpaceOnUse"
    >
      <stop stop-color="#0f172a"></stop>
      <stop offset="1" stop-color="#1e3a8a"></stop>
    </linearGradient>
  </defs>
  <path
    d="M50 5 L65 25 L65 75 L50 90 L35 75 L35 25 Z"
    fill="url(#grad1)"
    class="drop-shadow-lg"
  ></path>
  <path
    d="M30 30 L10 45 L10 75 L30 90 L45 75 L30 60 Z"
    fill="#0B4F6C"
    opacity="0.9"
  ></path>
  <path d="M35 25 L20 40 L20 70 L35 55 Z" fill="#22d3ee" opacity="0.8"></path>
  <path
    d="M70 30 L90 45 L90 75 L70 90 L55 75 L70 60 Z"
    fill="#0B4F6C"
    opacity="0.9"
  ></path>
  <path d="M65 25 L80 40 L80 70 L65 55 Z" fill="#22d3ee" opacity="0.8"></path>
</svg>
